/* XPM */
static char *texture1[] = {
/* columns rows colors chars-per-pixel */
"128 128 28 1 ",
"  c #775544",
". c #775555",
"X c #776655",
"o c #886655",
"O c #887766",
"+ c #997766",
"@ c #AA7766",
"# c #998866",
"$ c #998877",
"% c #AA8866",
"& c #AA8877",
"* c #BB8877",
"= c #AA9977",
"- c #BB9977",
"; c #CC9977",
": c #AA9988",
"> c #BB9988",
", c #CC9988",
"< c #CCAA88",
"1 c #DDAA88",
"2 c #DDBB88",
"3 c #CCAA99",
"4 c #DDAA99",
"5 c #DDBB99",
"6 c #EEBB99",
"7 c #DDBBAA",
"8 c #EEBBAA",
"9 c #EECCAA",
/* pixels */
".X+%&&&&&&&&&&&&&&&**&&&&&&%%%%%&&&%%&&&&&&&&&&*&&&&&&&&&&&&&&&&&&&&&&&&&&&&&&&&&&&&&&&&&&&&&&*&&&&&&&&&&&&&&&&&*&&&&&&&&&&&&&+.",
"X+<455545555555555555565655665555546445655555555565555556666655655666666866686888688886686666668666666665656666666666666666666,o",
" +4565555656555666566644545555566455656565654566655456666666666666665555555555566566686666668688888889886888866666666566666665,X",
".O,554565555545555564554555544145554455555554466555566666666666565555555656666656655655556644455555555445555545554454554554555- ",
" .-4555556555444444544444444445454555565455555556666665666654665556656666566666666666665566655568666665566686666668886866868665+",
"X+,5566666656654455541114441444111455445544566666655566666666566555656565455555555555654545545456556555555565655655566555656665+",
"X%46566666555565555554545455544444445444544414414455444455565555666666566665666666666664556666666666668888666665686888886666665O",
"X>66666666665666666555545545514554445445414545445466666666555566665544556555655555555554414555445565555554656665666885888666866O",
"X-5545565655545455555555555655556566666665655544556556555556654565555555544554454455444454455556655655665666666666465555545544<X",
"X+4656666666666666566666666666666666566666666666655666666666666666656666666666566666555665566555555566665566555664565555455545<X",
" X;4414114555545445544545444454154554455555556555556566666656665656555556666665665666666656566666555565565554555654555555666661o",
" &56666665666665456655555444444554466664564156655666466666665566666666656666566665555655566556655555565566665666666666666656664o",
".%4556555566655555666566656566556666666555666666666666666666656666666656666666666566665666666555565465444555565555445555655655,X",
".O,555566655445555554554555566565565455544556565655566555556666666665655666666665665655666655566566566666666666666556656666655<X",
".O<566566665655665666656665551444555455544554554545555566666566665666666555655565666566666666666655555666556555554554555544445<X",
".X+&&&&&&&%%%%&&&&%&%&&%%%%%%@%%%%&&&&&%&&&&&&&&&&&&&&&&&&*&&&&&&&&&&&&&&&&&&&&&&&&&&&&&&&&&&&&&&&&&&&&&&&&&&&&&&&&&&&&&&&&&&&+X",
"&&&&&&&&&&&&==&&&&&&&&&&&&=&&&&&&&&&&&&&&&&==&&===&&&=&&&&&&&&&&&&&&&OX&&&&&&&&&&&&&&&&&&&&$&&&&&&&&&&&&&&&&&&&&&&&&&&&&&&&&&&&&",
"555555557778888787755555555555555555557555577557555557788877755575555&X555555555555557875755555555555555555555553545555555555555",
"555555455555555453544555555555555555555555555545555555555555755555555=X355555555555557775775777755555557555555555555555454555555",
"555555555555555555555555555555545544355553455555544554333555555555554#X355555555555555777777888555577577777555555555555553445555",
"555555555555555555557555555555555555555555775755555545534555455555555&X<45555545555555555555455555455555555555555555555555555555",
"444444444555555553555555555555555555555555555555555555755555555555553#X555555555555555555555555555555555555445554544<44533<<4344",
"555555555555554555555555555555555555555555555555555554445545555555555>X<45555555555555545555555555555555555455555555555555555555",
"54455554555555555555577557555555555555555555555555555555554444555555<+X345555555555555555555555555555555555555555555445554455555",
"555555555555555555555555555555555555555555555575555555555555555555554-X455555555555555555555555555555555555555555555555554555455",
"555555555555555555555577875555555555555555555555555557555555555555555&X555555555555555555555555555555555555555555555555555554555",
"555555555343435555555555555555555554555555555555555555555555555555555%X<45555545554555554555555555555555555555555555555555555555",
"555555557755575555543555555455555555555775778887755555555555555555554#X355555555554455553455555555555555555555555455555545555555",
"344554455445555578888788877555555755555575777577777577757757787755555-X<55555555544555555545344555555555555555555455555544554544",
"555555555557555555555577777555557757755555577587557875757557575555554&X555555555557555555555555555555555555555555555555555555555",
"555787788877777777775755555555555775775777857877777778777877777555555-X455555555555555555555555555555555555555555555555555555555",
"&&&&&&$&&&&&&&&&&&&&&&&&&&&&-=&&&&&&=&&&&=&&&&&&&&====&&&=&&&&&&&&&&&OX&&&&&&&&&&&&&&&&&&&&&&&&&&&$&&&&&&&&&=&&==--&&&&&&&&&&&&&",
"&&&&&&&&&&&&XX+&---&-&&&&&&&&&&&&#&&&&&&&&&&&&&&&&&&&&&&&&&&&&&&&=&-=&-&&=-->----=-----===>>->>--->-=&==&&=&&&&&&&&&&*&&*&&&&&&&",
"55555455544-.X+<5555555555866668888888888888886586888888888868886866666688686888868888888568688886856666666666666566666566656666",
"666566666685oo>66666886888886666668666666566686666868888886888888655666668666666888888888566566555555555545555544555555456555545",
"565555666564XX#55566565665566655666668888866668888656666665665655555666556655556665556555565555555555555446554555456555455555445",
"55546566555,Xo-56688888866666566656666665666656666556665668888866665666666655565554555445555455555555555556555555555554445554445",
"655555666665OX&56666555544555544555555555555655555555554565665666566666665656666566666666666655555566654544556541444544445555545",
"55555545555* X&16555555455654544554545444445454444544444554114555556566555555566666666666666666665666666656556655555555444545556",
"55555666555- .+<6655665555666666666656655556665566555554444414554456565656555666666666668666868666666666666665665555554454444555",
"66665665566<XX&46666555556544445455555655656555565555456666666665444555555554444555555554555455554455555445555665666665666565566",
"41141444144+  o<4454544555556656556555665566556566555555555455556656666666666666666666665666665666665565445444444444141111111114",
"65555666556- X*66565655555555666666566656666656666555655555555544444455555555555556555445655565565554555555544455566555565455556",
"55445654566<Xo&56666666668886886666666668666666666666665556666665556556655666565555555655656666566656655666655445545444454444555",
"55545566664-Xo&45565555655665665556666566666666666668655666666666566666666666666666666665666666655666556666666665566655655454444",
"56555555655>XX+<5556866866688665556666665665656666656555565666666666666666566655556665666666666665555666546666665555555555554455",
"56555555544+.o&45555555444555885556858665688888888888855656666666556655556665655666555555556655655666666556665666556555555545455",
"&&&&&&&----&XX+&&&&-=-&&&&&&&&&&$#&&&&&&&&&&&&&&&&&&&&&&=&-=&=-==-=&&&&&&&&&&&&&&&&&&&&&&&&&&&&&&&&&&&&&&&&&&&&&&%&&&&%%%&&&&&&&",
"&&&&&&&%%&&&&&&&&&%&&&&&&&&&&&&&&&&&&&&&&&==&&&&&&&&&&&&&&&&&%&%&&&&&&&&&%%%%%#%&&+XO%&&&&&&&&%%&&&&&&&&&&&&&&&&&&&&%&&&&%%%%%%&",
"5555555544455455544555555555555555555555555555555555555555555555555555555555555555<o-4555555555555555545555554555555554544555555",
"5444555555455555555555555555555555555555555555555445555555555555555555555555555545>X#<455554455555555555555555555555555555555555",
"5555555514444444445555555555555555555555554555555555555555555555555555555555555555-X&<555555555555555555555555555555555555555455",
"5555555555555555455555555555555665665555555544343454555555555555555555555455555555>X&<555555555555554515555555555555545555555545",
"5555555555545555555555555555555568586888888655555555555555555555555555555555555555>X&<555555555555555555555555545555555555555554",
"5545545555555555555555555555555555555555555555555555555555555555555555555555555545>X-5555555555555555455555555555555554555555555",
"5555555555555555555555555555555455555555555555555555555555555555555556555555555555>X>5856555555555555555555545545554455555555455",
"5555555555555555555555556666666855555555555555555555555554555545544555445455555555-X&<455455555455544455444555545555555555555555",
"5555555445444555555555555555555555555555555555555555555555555565556556665565555555>X&5555555555555555555555555555555555555555555",
"5555555555514565555555668688886888586588585555555555555555555555555555555555555544-X#<555555555545555444454445554145555555555555",
"4445545414544455555555555555555555555555555555555555555555556565565555655555555555>o-5555555555555555555555555555555555555555555",
"5555555555555555555555555555888588668885655565555555555555555555556555555555555555>o<5555555555555555555544555555555555555555555",
"5555555555555555555556555858888755555555555555445455555555555555555555556555555555-X=5555555555555555445444144545555555555555555",
"5555555555555555655555555555555558556555555555555555555555555556655555555555555555-X&<555555545555555545554444555545555545555555",
"&&&&&&&%%#%#%%%%%%%%&&&&&&&&&&&&&&&&&&&&&%&%%&&&&&&&&&&&&&&&&&&&&=&&&&&&&&&&&&&&&&+.X+&&%&&&&#&%&%%%&%#&%%&&&&&&&&&&&&&&&%%&&&&&",
"&&&&$#&&&&&&&&&&&&&&&&&&o +++&&&&&&&&&&&&&&&&&&&&&&&&&&==&=&&&&&=&&&&&&&&&&&&&&&&&&&&&&&&&&&&&&&&&&&&&=&&&&&&&&&&&&&&&&&&&=&&&&&",
"555555555555555554544444+.&<3555555555555555555455555555555555555555555555555555555557777755875555555555775575775555555555555557",
"555555555555555544555455% &>3554555555555445555455555555555555555555555555555555555555555555555555555755555555555555555555575555",
"755557555555555555555555&.&,4455555545555555555555555555555555555557555577875555555555555555555555545555555557555557775555555555",
"555545555555555555555554&.><4555555555555555555555555555555555555555555555555555577758875555555555555555775555777775555555555534",
"555555555555555555555555&.><4555555555555555555555555555555555555455555555555555555557575555557757787875555555555555555554455555",
"555555555555555555555554&.><4555555555555555555555557775555555555575575557557557555555555575555555555555555555555555555555555555",
"555555555555555455555454+ -<4555555544455555555555555555555555555555555555555555555575555555555557555555555555555575555555555555",
"555555555545555555555455-.&<<455455444455555555555555555555555555555555555555555555555454455555555555575775577555555555555555555",
"555555555555555555555554# -34555555555555555555555555555555555555555555555555555555555555555554555555555355545555555555555555555",
"787755555555555555555555&.->3555555555555555555555545555555555555555555555555555555555555555555555555555355555555555555775555555",
"555555555555555555555555<.&<5555555555555555555555555575555577755555555555555575787888877555555555557555557888877885555555555455",
"7777555555555555557555553X>35555555555455555555555555555555555555555555555555557577788878877787788575775577755555555555755585557",
"3<334554555554554555544<+ -455555555555555555557577755555775555555555555555555555555577887788887888888888888888887755555433433<<",
"555555555555555555555555>.&-<555545555455555555555555555555555544555555555555555555555555555555555555555555555555575555555555555",
"&&&&&&&&&&&&&&&&&&&&&&&&o.+#&&&&&&&&&&=&&&&&&&&==&&=&&&&&&&&&&&&=-===&&&&&&&&&&=&&&=&&&&==&&&&==>>>:=&&&&&&&&&&&&&&&&&&&&&&&&&&&",
"&&&&&&&&&&&&&&&&&&&&###&&&&&%%&%&&&&&##&&&%#%%%%%&&&&&=&&&&&&-&&&&&&&&&&&&&&&%%%%%&&%&&&&&&-=-&Oo+&&&&--&&&&&&&&&&&&&&&&&&&&&&&&",
"55555555445555555555555555555555555555555555555555545555554555555554544454454455555555555555555&+>445555555555555555555857855755",
"54555555555555555555555545555555555555555555555555555555555555554455544555555555544455555555555&+,455555555555455545555555555555",
"55555555555545555555555555555555455555555554445555555555555545555554555555444454445555555555555&+<455555554455555545455555555555",
"555555555555555555555555555555545555555555555445545555555555555555554444<4555555555555454554555&+3455555555555555555455555555755",
"55555555555555555555555555555555555555555555555555555555555544555555555555555554444555555555555&+<455555555555555555555555555555",
"55545555555555555555455555555555555555555555555555555555555555555555555555545555555554444544544++<455555555555555555555555577555",
"55555555555555555555555555555555555555555555555555555555555555555555455554555455555555555555555&+>455555555555555555555555545555",
"34455455555555555555555555455555555544555455455555555555555555555455455555555455555555555555555&+<335445555555555755555555555554",
"55555555555555555555555555555555555555555555555555555555555555555555445555555555545545555555555&+<555555555555555557577888888755",
"55555555555555555555555555555555545555555555555555555555555555455444555554555455555555555555555&+<455555555555555555555557755755",
"55555555555555555555555555555555575557755555555555555555555555455555555555555555555555555555555&#4555555555444555555555555555555",
"55555554554555555545555455555555555554454555554555555555455555445555555555555555555555555545555&+4555555558787555555555555555555",
"575555555555555575555555555555555555555555555545555555555555555555555555555555555555555554<5555=+<<55555555555555555555555555555",
"5555555555555555555555555555555555455555555555554555555555555555455555545545454<444544455544555&&5575555788888877887588788877557",
"&&&&&&&&&&&&&&&&&&&&&&&&&&&&&&&=&&&&#&&&&&&&&&&&&&&&&&&&&&&&&&&&&&&&&&&&&&&&&&&&&&&&&&&&&&&&&&&Oo###&&&&&&&&=&&&&&&&&&&&&&&&&&&&",
"&&&&&&&&&&&&&&&&&=-&&&&&&%$&&%&&&&&&=&X#&&&&&&&&&&&&&&&&&&&&&&&&&&&&&&&&&&&&&&&&&&&&&&&&&&&&&&&&&=&==&&&&&&&&&&&&&=&&&&&&&&&&&&&",
"34445455445445554434554544455455555554X3555555555555555555555555545555555555555577877558587787788888757777777555555533<33<<<<<34",
"55555555555555555555555555555555555555X35555555555555555545445555445554444555555555555555555555555555555555555555555555555555555",
"55555555555555555555555455555555555554X35555555555555555555555555555555555555557555557777577887775577575555555555555555555555555",
"55555555544555444445535555555555555554X35555555555555555554555555555555555555555555555555555555555555555555555755555555555555555",
"55555554555555555555555555555555555553X45555777555555555557555555555454455555554555555555545555555555555555555555555555555455555",
"44544444454544434544445545555555555554X35555455555555555555555555555554455555555575777775555577755555555555555555555555455555555",
"55455454555554545555555555555555555554X<5555555555555555555554555555555555555555755555555555555555555555555555555555555555555555",
"55555555544445555555555555555555555553X<5555555555555555555555555555555555555555575555555555575775555555555555555555555555555555",
"55555555555545555555555555555555555553X45555555555555555555555555755555555555555557757575575555555575557755555555777555555555755",
"5555555555555555555555555555555555555<X<5555555555555555555555555555555555555555575557857778757777577555775555555555555555555555",
"55555555555555555555555555555555555553X<4555555555555555555755555555555555555555557555555555555575555555555555555555555555555555",
"55555555555555545454545555554554555554X35555555555555555555555555535555554555455444455555555555555555555555555555555555555555555",
"55455555555555555555554455555575775554X<5555555555555555545555555545455554555555555555555555555555555555555555555555555555555555",
"55555555555555555555555555555555575554X55555575555555555555553345557555555555555555755555555555555555555555555555555555555555555",
"&&&&&&&&&&&&&&&&&&%%&&&&&&&&&&&&&&$#$+X+&&&&&&&&&&&&&&&&&&&&&&&&&&&&&&&&&&=&===&=&=&=&&&&&&&&&&&&&&&&&&&&&&&&=&&&&&&&&&&&&&=&&&&",
"--=&&&&&&&=&&==&-&=--&&&&&&&&&&&&&&&&&&&&&&&&&&&&&&&-*&&&&&&&&&&&&&&&%&&%%%&%&%%&&&&&*&&&*&&&&==->=&&&&-&&&XXX+-----&&&&&-=&==>-",
"88889888888888888666866666666666666555665566556566666665566656665556555156516556666666566666666666668888888<XX&68868888898666888",
"886655665555666866666656666566565665665656655556666555655555554555555156555666555556666666666666666666668898OX-66666666686888889",
"566666666566666866666666666666666666666666666665666666666666665566566565166666566666666665666666665566666664X.%66666666666666666",
"66666666666655456556666655556566666666666666666566554565116655555515555115666655666666666666666666666666666<.X&66666665666556666",
"666666666666666666666655565666566655666565546551556645411151455616654565666566666666666666115666666666666664XX-65545666666666666",
"66665551114511411455554655566666666666666666656566666665666655155665566666666666666666666665565665666666666- o-55666666666666666",
"66655666666666665565551551544155555665256556665555656566666565455655566556511566666666666666666666666666661+ X&56666666666666666",
"66665666666655666455455551415555141416416555154561151565666656646665565446665455166666666666666666556655666,. +55556666656666666",
"66666666566555445556554266566666666656656655565565556554655515656656666666666666515566666666666645666666666-  +55666666866666666",
"66656666665555656655445565655666666666666666666666666666666666666665655566666666666545566666656666666666666<XX-66666666656665555",
"66666666666666666666666666666665555545555456665545666666666556666666666666665666655666654666665566566666566<XX*66666666555455666",
"666666666666666655555555556656656666666666665554445555566556666666666564666666666656666666555566666666666661Xo,56665555666556666",
"555655556556666665555565556666666666666666666666666655655555554551115141556666656666666886666666688988866665oX-46665666666666666",
"66886666666666656665555665665566666666666666666666665666666555554111411114665566666666665666666666666686685+X O15666866665566686",
"&=&&&&&&&&=-&&&&&=&&&--=&&&==-&&&&&&&&&&%&&&&&&&&&&&&&**---&&&&&&*&&&%%%%%%%%%%%&&&&&&&=&&&-&&&->--=-=&&&&&+X.X#&&&&&&&&-&&&&&&&"
};
